<?xml version="1.0" encoding="iso-8859-1"?>
<!-- Generator: Adobe Illustrator 19.0.0, SVG Export Plug-In . SVG Version: 6.00 Build 0)  -->
<svg version="1.1" id="Layer_1" xmlns="http://www.w3.org/2000/svg" xmlns:xlink="http://www.w3.org/1999/xlink" x="0px" y="0px"
	 viewBox="0 0 512.001 512.001" style="enable-background:new 0 0 512.001 512.001;" xml:space="preserve">
<path style="fill:#FF5E5B;" d="M388.238,499.078H123.761c-8.858,0-16.395-6.455-17.757-15.207L76.288,292.849
	c-1.693-10.886,6.734-20.733,17.757-20.733h323.911c11.017,0,19.451,9.842,17.757,20.733L405.996,483.87
	C404.633,492.623,397.097,499.078,388.238,499.078z"/>
<g>
	<path style="fill:#ED3E3C;" d="M417.955,272.116H256v226.962h132.238c8.858,0,16.395-6.455,17.757-15.207l29.716-191.022
		C437.406,281.962,428.978,272.116,417.955,272.116z"/>
	<path style="fill:#ED3E3C;" d="M293.773,499.078h-75.546c-9.193,0-16.905-6.939-17.871-16.082l-20.174-191.022
		c-1.121-10.615,7.214-19.858,17.871-19.858h115.894c10.675,0,18.991,9.26,17.871,19.858l-20.174,191.022
		C310.678,492.139,302.966,499.078,293.773,499.078z"/>
</g>
<path style="fill:#D62F2D;" d="M313.947,272.116H256v226.962h37.773c9.193,0,16.905-6.939,17.871-16.082l20.174-191.022
	C332.939,281.359,324.603,272.116,313.947,272.116z"/>
<path style="fill:#FFDA79;" d="M332.784,307.759c-19.458,22.054-47.329,34.674-76.784,34.674c-30.15,0-57.829-13.184-76.784-34.672
	c-19.905,22.605-48.864,35.495-79.817,34.629C44.229,340.761,0,295.617,0,240.004c0-63.779,58.063-112.415,121.098-100.707
	C118.75,69.98,180.18,12.923,256,12.923c75.813,0,137.249,57.05,134.9,126.372C454.013,127.576,512,176.301,512,240.003
	C512,334.659,394.589,377.951,332.784,307.759z"/>
<path style="fill:#FFC72D;" d="M390.9,139.296C393.249,69.978,331.816,12.925,256,12.925v329.509
	c29.414,0,57.298-12.587,76.784-34.674c61.926,70.33,179.217,26.733,179.217-67.755C512,176.342,454.053,127.569,390.9,139.296z"/>
<g>
	<path style="fill:#ED3E3C;" d="M270.041,145.246c-7.228-6.802-7.571-18.175-0.77-25.401l19.168-20.366
		c6.801-7.228,18.175-7.573,25.401-0.77c7.228,6.802,7.571,18.175,0.77,25.401l-19.168,20.366
		C288.642,151.702,277.267,152.049,270.041,145.246z"/>
	<path style="fill:#ED3E3C;" d="M416.054,259.307c-3.105,0-2.216,0.025-31.625-7.691c-9.601-2.518-15.34-12.343-12.821-21.941
		c2.519-9.6,12.345-15.34,21.941-12.821l27.052,7.098c9.601,2.519,15.34,12.343,12.821,21.941
		C431.305,253.964,424.024,259.307,416.054,259.307z"/>
</g>
<g>
	<path style="fill:#FF5E5B;" d="M80.529,267.437c-7.228-6.802-7.571-18.175-0.77-25.401l19.168-20.366
		c6.801-7.228,18.174-7.573,25.401-0.77c7.228,6.802,7.571,18.175,0.77,25.401l-19.168,20.366
		C99.131,273.894,87.756,274.24,80.529,267.437z"/>
	<path style="fill:#FF5E5B;" d="M232.915,233.059l-18.788-20.717c-6.667-7.352-6.112-18.716,1.24-25.383
		c7.351-6.666,18.716-6.113,25.383,1.24l18.788,20.717c6.666,7.352,6.112,18.716-1.24,25.383
		C250.944,240.966,239.58,240.41,232.915,233.059z"/>
</g>
<path style="fill:#ED3E3C;" d="M259.538,208.916L256,205.015v31.035C265.422,229.921,266.883,217.017,259.538,208.916z"/>
<g>
</g>
<g>
</g>
<g>
</g>
<g>
</g>
<g>
</g>
<g>
</g>
<g>
</g>
<g>
</g>
<g>
</g>
<g>
</g>
<g>
</g>
<g>
</g>
<g>
</g>
<g>
</g>
<g>
</g>
</svg>
