<?xml version="1.0" encoding="iso-8859-1"?>
<!-- Generator: Adobe Illustrator 19.0.0, SVG Export Plug-In . SVG Version: 6.00 Build 0)  -->
<svg version="1.1" id="Layer_1" xmlns="http://www.w3.org/2000/svg" xmlns:xlink="http://www.w3.org/1999/xlink" x="0px" y="0px"
	 viewBox="0 0 368 368" style="enable-background:new 0 0 368 368;" xml:space="preserve">
<g transform="translate(0 -1020.36)" shape-rendering="auto" image-rendering="auto" color-rendering="auto" color-interpolation="sRGB">
	<path style="fill:#464C63;" d="M184.003,1020.362c-21.997,0-40,18.004-40,40c0,2.84,0.304,5.605,0.88,8.281
		c-15.053-0.207-29.845,4.65-41.626,14.375c-13.166,10.869-21.04,26.58-22.626,43.438c-23.346,5.799-41.774,24.207-47.093,48
		c-5.363,23.992,3.678,48.66,22.656,63.813l23.469,143.406c0.642,3.852,3.97,6.678,7.875,6.686h194.813
		c3.947,0,7.304-2.881,7.906-6.781l21.531-143.25c19.23-15.34,28.213-40.41,22.501-64.594
		c-5.546-23.475-23.864-41.555-46.938-47.281c-1.536-16.346-8.925-31.65-21.469-42.5c-11.938-10.322-27.203-15.439-42.782-15.217
		c0.576-2.705,0.912-5.5,0.912-8.377c0-21.996-18.003-40-40-40L184.003,1020.362z M142.19,1084.268v0.16
		c3.477-0.16,6.984,0.16,10.469,0.783c0.107,0.002,0.213,0.002,0.32,0c7.349,9.131,18.472,15.125,31.032,15.125
		c12.662,0,23.877-6.084,31.219-15.344c0.462-0.014,0.923-0.066,1.376-0.16c13.947-2.178,28.136,1.891,38.813,11.125
		c10.421,9.01,16.349,22.039,16.499,35.783c-0.639,4.373,2.388,8.436,6.76,9.074c0.049,0.006,0.098,0.014,0.147,0.02
		c19.565,2.801,35.362,17.234,39.906,36.469c4.542,19.234-3.13,39.244-19.374,50.5c-0.215,0.145-0.424,0.301-0.624,0.465H69.451
		c-0.074-0.055-0.148-0.107-0.224-0.16c-16.459-11.041-24.418-31.002-20.094-50.344s20.03-33.988,39.626-36.969
		c3.593-0.465,6.426-3.285,6.906-6.875c0.213-0.689,0.331-1.404,0.352-2.125c0.16-14.174,6.506-27.537,17.437-36.563
		c8.2-6.768,18.322-10.58,28.75-10.969L142.19,1084.268z"/>
	<g>
		<path style="fill:#FFB900;" d="M183.997,1036.368c13.349,0,24,10.65,24,24s-10.651,24-24,24c-13.35,0-24-10.65-24-24
			S170.646,1036.368,183.997,1036.368z"/>
		<path style="fill:#FFB900;" d="M73.433,1244.368h221.282l-19.282,128H94.341L73.433,1244.368z"/>
	</g>
	<g>
		<g>
			<path style="fill:#464C63;" d="M248.059,1268.358c-4.098-0.023-7.552,3.051-8,7.125l-8,63.783
				c-0.591,4.387,2.486,8.424,6.874,9.014c4.387,0.592,8.423-2.486,9.014-6.873c0.006-0.047,0.012-0.094,0.018-0.141l7.97-63.783
				c0.621-4.375-2.422-8.424-6.797-9.045C248.78,1268.387,248.42,1268.36,248.059,1268.358z"/>
			<path style="fill:#464C63;" d="M119.685,1268.389c-4.416,0.166-7.861,3.879-7.696,8.295c0.01,0.268,0.033,0.533,0.07,0.799
				l8,63.783c0.505,4.391,4.474,7.539,8.863,7.033c4.39-0.506,7.539-4.475,7.033-8.863c-0.007-0.057-0.014-0.113-0.021-0.17
				l-7.97-63.783C127.492,1271.313,123.878,1268.215,119.685,1268.389z"/>
			<path style="fill:#464C63;" d="M183.872,1268.358c-4.418,0.068-7.944,3.707-7.875,8.125c0,0,0,0,0,0v63.783
				c-0.062,4.418,3.469,8.051,7.887,8.113c4.418,0.063,8.051-3.469,8.113-7.887c0.001-0.076,0.001-0.15,0-0.227v-63.783
				c0.069-4.418-3.456-8.057-7.875-8.125C184.038,1268.356,183.955,1268.356,183.872,1268.358z"/>
		</g>
		<path style="fill:#464C63;" d="M215.465,1108.389c-0.714,0.049-1.419,0.195-2.094,0.432l-23.781,7.906
			c-4.194,1.398-6.46,5.932-5.063,10.125c1.398,4.193,5.931,6.461,10.125,5.063l0,0l23.75-7.938
			c4.201-1.371,6.494-5.889,5.123-10.088c-1.127-3.451-4.436-5.713-8.061-5.506L215.465,1108.389z"/>
		<path style="fill:#464C63;" d="M231.465,1156.389c-0.714,0.049-1.419,0.195-2.094,0.432l-23.781,7.906
			c-4.194,1.398-6.46,5.932-5.063,10.125c1.398,4.193,5.931,6.461,10.125,5.063l0,0l23.781-7.938
			c4.202-1.367,6.5-5.883,5.132-10.084c-1.129-3.469-4.46-5.734-8.1-5.51L231.465,1156.389z"/>
		<path style="fill:#464C63;" d="M147.997,1180.389c-4.419,0.018-7.986,3.615-7.968,8.033c0.009,2.141,0.875,4.188,2.405,5.686
			l15.845,15.844c3.057,3.191,8.122,3.299,11.312,0.242s3.299-8.121,0.242-11.313c-0.079-0.082-0.16-0.164-0.242-0.242
			l-15.843-15.844C152.234,1181.249,150.16,1180.381,147.997,1180.389z"/>
		<path style="fill:#464C63;" d="M276.059,1180.358c-3.513-0.025-6.631,2.244-7.688,5.594l-7.938,23.783
			c-1.398,4.193,0.869,8.729,5.063,10.125c4.194,1.398,8.728-0.869,10.126-5.063l7.938-23.783c1.467-4.168-0.723-8.736-4.892-10.203
			C277.83,1180.516,276.948,1180.364,276.059,1180.358L276.059,1180.358z"/>
		<path style="fill:#464C63;" d="M123.496,1124.389c-4.411,0.266-7.771,4.057-7.506,8.467c0.2,3.316,2.429,6.166,5.6,7.156
			l23.781,7.906c4.194,1.398,8.727-0.869,10.125-5.063c1.398-4.193-0.869-8.727-5.063-10.125l-23.811-7.906
			c-1.003-0.35-2.066-0.496-3.126-0.432V1124.389z"/>
		<path style="fill:#464C63;" d="M96.059,1172.358c-3.513-0.025-6.631,2.244-7.688,5.594l-7.938,23.783
			c-1.398,4.193,0.869,8.729,5.063,10.125c4.194,1.398,8.728-0.869,10.126-5.063l0,0l7.938-23.783
			c1.467-4.168-0.723-8.736-4.892-10.203C97.83,1172.516,96.948,1172.364,96.059,1172.358z"/>
	</g>
</g>
<g>
</g>
<g>
</g>
<g>
</g>
<g>
</g>
<g>
</g>
<g>
</g>
<g>
</g>
<g>
</g>
<g>
</g>
<g>
</g>
<g>
</g>
<g>
</g>
<g>
</g>
<g>
</g>
<g>
</g>
</svg>
